<mxfile host="app.diagrams.net" modified="2024-05-07T20:07:03.853Z" agent="Mozilla/5.0 (Windows NT 10.0; Win64; x64; rv:125.0) Gecko/20100101 Firefox/125.0" version="24.3.1" etag="f5jR-Q5SoqNCIuwRb1gv" type="github">
  <diagram name="Page-1" id="z0A3HbcAvyZbjTmtrqKG">
    <mxGraphModel>
      <root>
        <mxCell id="0" />
        <mxCell id="1" parent="0" />
      </root>
    </mxGraphModel>
  </diagram>
</mxfile>
